<?xml version="1.0" encoding="iso-8859-1"?>
<!-- Generator: Adobe Illustrator 19.0.0, SVG Export Plug-In . SVG Version: 6.00 Build 0)  -->
<svg xmlns="http://www.w3.org/2000/svg" xmlns:xlink="http://www.w3.org/1999/xlink" version="1.1" id="Layer_1" x="0px" y="0px" viewBox="0 0 512 512" style="enable-background:new 0 0 512 512;" xml:space="preserve" width="512" height="512">
<g>
	<g>
		<path d="M175.649,442.322H24.192c-5.037,0-9.135-4.098-9.135-9.135V24.135c0-5.037,4.098-9.135,9.135-9.135h409.053    c5.037,0,9.135,4.098,9.135,9.135v255.907c0,4.142,3.357,7.5,7.5,7.5s7.5-3.358,7.5-7.5V24.135C457.38,10.827,446.553,0,433.245,0    H24.192C10.884,0,0.058,10.827,0.058,24.135v409.053c0,13.308,10.827,24.135,24.135,24.135h151.457c4.142,0,7.5-3.358,7.5-7.5    S179.792,442.322,175.649,442.322z"/>
		<path d="M487.203,302.559h-68.475l-1.602-3.945v-48.072c0-0.012,0-0.024,0-0.035V47.754c0-4.142-3.357-7.5-7.5-7.5H47.812    c-4.142,0-7.5,3.358-7.5,7.5v316.953c0,4.142,3.358,7.5,7.5,7.5h150.102v115.054c0,13.641,11.098,24.739,24.739,24.739h264.549    c13.642,0,24.739-11.098,24.739-24.739V327.298C511.942,313.657,500.845,302.559,487.203,302.559z M212.915,357.552h87.556    c-13.21,13.65-21.35,32.235-21.35,52.686c0,17.632,6.051,33.877,16.184,46.768h-82.39V357.552z M294.12,410.238    c0-33.53,27.278-60.809,60.809-60.809s60.809,27.279,60.809,60.809s-27.278,60.809-60.809,60.809S294.12,443.768,294.12,410.238z     M430.737,410.238c0-20.451-8.14-39.036-21.35-52.686h87.555v99.454h-82.389C424.687,444.115,430.737,427.87,430.737,410.238z     M496.942,327.298v15.254H389.051c-10.262-5.194-21.856-8.123-34.122-8.123s-23.861,2.928-34.122,8.123H212.915v-15.254    c0-5.37,4.369-9.739,9.739-9.739h73.356c0.055,0.001,0.111,0.002,0.166,0.002c0.054,0,0.108-0.001,0.163-0.002h117.183    c0.104,0.002,0.208,0.002,0.313,0h73.369C492.573,317.559,496.942,321.928,496.942,327.298z M402.126,269.598    c-2.667-1.741-5.835-2.72-9.184-2.72h-76.028c-5.705,0-10.883,2.838-13.952,7.446l-11.444-12.807l48.27-54.023    c3.365-3.766,8-5.84,13.051-5.84c4.983,0,9.563,2.02,12.916,5.691l36.37,45.827V269.598z M312.026,290.961    c0.038-0.089,0.074-0.178,0.109-0.268l3.128-7.704c0.274-0.675,0.923-1.111,1.651-1.111h76.028c0.729,0,1.378,0.437,1.652,1.112    l7.944,19.568h-95.22L312.026,290.961z M402.126,55.254v173.789l-24.769-31.208c-0.091-0.114-0.186-0.226-0.282-0.334    c-6.159-6.893-14.992-10.846-24.235-10.846c-9.244,0-18.077,3.953-24.236,10.846l-47.143,52.761l-89.088-99.705    c-6.159-6.893-14.992-10.846-24.236-10.846s-18.077,3.954-24.236,10.846l-88.589,99.147V55.254H402.126z M55.312,357.207v-84.992    l99.774-111.665c3.365-3.766,8-5.84,13.05-5.84s9.686,2.074,13.05,5.84l94.603,105.878c0.045,0.051,0.09,0.102,0.137,0.153    l20.496,22.939l-5.294,13.04h-68.475c-13.641,0-24.739,11.098-24.739,24.739v29.909H55.312z M487.203,497H222.654    c-5.37,0-9.739-4.369-9.739-9.739v-15.254h98.109c12.397,8.837,27.555,14.041,43.905,14.041s31.508-5.203,43.905-14.041h98.109    v15.254C496.942,492.631,492.573,497,487.203,497z"/>
		<path d="M389.016,410.238c0-18.796-15.291-34.087-34.087-34.087s-34.088,15.292-34.088,34.087s15.292,34.087,34.088,34.087    S389.016,429.034,389.016,410.238z M335.841,410.238c0-10.525,8.563-19.087,19.088-19.087c10.524,0,19.087,8.563,19.087,19.087    s-8.563,19.087-19.087,19.087C344.403,429.326,335.841,420.763,335.841,410.238z"/>
	</g>
</g>















</svg>
